<svg width="18" height="18" viewBox="0 0 18 18" fill="none" xmlns="http://www.w3.org/2000/svg">
<path d="M15.9078 11.918C15.4307 13.0464 14.6844 14.0407 13.7342 14.814C12.784 15.5873 11.6589 16.1161 10.4571 16.3541C9.25538 16.5921 8.01362 16.5322 6.84041 16.1794C5.6672 15.8266 4.59827 15.1919 3.72707 14.3305C2.85586 13.4692 2.20891 12.4076 1.84278 11.2385C1.47664 10.0694 1.40247 8.82841 1.62675 7.62402C1.85103 6.41963 2.36692 5.28852 3.12934 4.32957C3.89175 3.37062 4.87746 2.61304 6.0003 2.12305" stroke="#2261DE" stroke-width="1.3" stroke-linecap="round" stroke-linejoin="round"/>
<path d="M16.5 9C16.5 8.01509 16.306 7.03982 15.9291 6.12987C15.5522 5.21993 14.9997 4.39314 14.3033 3.6967C13.6069 3.00026 12.7801 2.44781 11.8701 2.0709C10.9602 1.69399 9.98491 1.5 9 1.5V9H16.5Z" stroke="#2261DE" stroke-width="1.3" stroke-linecap="round" stroke-linejoin="round"/>
</svg>
