<svg width="20" height="20" viewBox="0 0 20 20" fill="none" xmlns="http://www.w3.org/2000/svg">
<path d="M10 1.25C5.17525 1.25 1.25 5.17525 1.25 10C1.25 14.8247 5.17525 18.75 10 18.75C14.8247 18.75 18.75 14.8247 18.75 10C18.75 5.17525 14.8247 1.25 10 1.25ZM10.875 13.5C10.875 13.9832 10.4832 14.375 10 14.375C9.51675 14.375 9.125 13.9832 9.125 13.5V10C9.125 9.51675 9.51675 9.125 10 9.125C10.4832 9.125 10.875 9.51675 10.875 10V13.5ZM10.875 6.5C10.875 6.98325 10.4832 7.375 10 7.375C9.51675 7.375 9.125 6.98325 9.125 6.5C9.125 6.01675 9.51675 5.625 10 5.625C10.4832 5.625 10.875 6.01675 10.875 6.5Z" fill="#BCBEC9"/>
</svg>
