<svg width="20" height="20" viewBox="0 0 20 20" fill="none" xmlns="http://www.w3.org/2000/svg">
<g clip-path="url(#clip0_814_53640)">
<path fill-rule="evenodd" clip-rule="evenodd" d="M10.0002 0.833984C4.93766 0.833984 0.833496 4.93815 0.833496 10.0007C0.833496 15.0632 4.93766 19.1673 10.0002 19.1673C15.0627 19.1673 19.1668 15.0632 19.1668 10.0007C19.1668 4.93815 15.0627 0.833984 10.0002 0.833984ZM13.9735 8.45065C14.0467 8.36702 14.1024 8.2696 14.1373 8.16412C14.1723 8.05865 14.1858 7.94725 14.1771 7.83647C14.1683 7.7257 14.1375 7.61779 14.0865 7.51909C14.0354 7.42039 13.9651 7.33291 13.8798 7.26177C13.7944 7.19063 13.6957 7.13729 13.5894 7.10487C13.4831 7.07245 13.3714 7.06162 13.2609 7.07301C13.1504 7.0844 13.0432 7.11777 12.9458 7.17118C12.8483 7.22458 12.7626 7.29694 12.6935 7.38398L9.11016 11.6832L7.256 9.82815C7.09883 9.67635 6.88833 9.59236 6.66983 9.59426C6.45133 9.59616 6.24232 9.6838 6.08781 9.8383C5.93331 9.99281 5.84567 10.2018 5.84377 10.4203C5.84187 10.6388 5.92586 10.8493 6.07766 11.0065L8.57766 13.5065C8.65954 13.5883 8.75758 13.6522 8.86551 13.694C8.97344 13.7359 9.08891 13.7548 9.20455 13.7495C9.3202 13.7443 9.43348 13.715 9.53717 13.6635C9.64087 13.6121 9.73271 13.5396 9.80683 13.4507L13.9735 8.45065Z" fill="#4ACD9E"/>
</g>
<defs>
<clipPath id="clip0_814_53640">
<rect width="20" height="20" fill="white"/>
</clipPath>
</defs>
</svg>
