<svg width="20" height="20" viewBox="0 0 20 20" fill="none" xmlns="http://www.w3.org/2000/svg">
<path d="M8.2774 2.34812C9.02647 0.883959 10.9735 0.883959 11.7226 2.34812L18.501 15.5909C19.2273 17.0096 18.2778 18.75 16.7779 18.75H3.22292C1.72216 18.75 0.772695 17.0096 1.49901 15.5909L8.2774 2.34907V2.34812ZM10.8738 14.9666C10.8775 14.8401 10.8576 14.714 10.8154 14.596C10.7731 14.4779 10.7094 14.3702 10.6279 14.2792C10.5464 14.1883 10.4488 14.116 10.3409 14.0666C10.2331 14.0173 10.1171 13.9918 10 13.9918C9.88286 13.9918 9.76693 14.0173 9.65907 14.0666C9.55122 14.116 9.45364 14.1883 9.37214 14.2792C9.29063 14.3702 9.22687 14.4779 9.18462 14.596C9.14238 14.714 9.12252 14.8401 9.12623 14.9666C9.13341 15.2119 9.22861 15.4446 9.39169 15.6154C9.55477 15.7861 9.77293 15.8816 10 15.8816C10.2271 15.8816 10.4452 15.7861 10.6083 15.6154C10.7714 15.4446 10.8666 15.2119 10.8738 14.9666ZM10.6471 7.53891C10.6244 7.36078 10.54 7.1986 10.4109 7.08517C10.2819 6.97174 10.1177 6.91553 9.95176 6.92791C9.78579 6.94028 9.63037 7.02032 9.51691 7.15183C9.40346 7.28335 9.34045 7.45652 9.34062 7.63634L9.34412 11.8936L9.35025 11.9901C9.37292 12.1682 9.45734 12.3304 9.58643 12.4438C9.71551 12.5572 9.87964 12.6134 10.0456 12.6011C10.2116 12.5887 10.367 12.5087 10.4805 12.3771C10.5939 12.2456 10.6569 12.0724 10.6567 11.8926L10.6532 7.63444L10.6471 7.53891Z" fill="#F59424"/>
</svg>
