<svg width="64" height="64" viewBox="0 0 64 64" fill="none" xmlns="http://www.w3.org/2000/svg">
<path fill-rule="evenodd" clip-rule="evenodd" d="M32.0003 2.66602C15.8003 2.66602 2.66699 15.7993 2.66699 31.9993C2.66699 48.1993 15.8003 61.3327 32.0003 61.3327C48.2003 61.3327 61.3337 48.1993 61.3337 31.9993C61.3337 15.7993 48.2003 2.66602 32.0003 2.66602ZM44.715 27.0394C44.9491 26.7717 45.1274 26.46 45.2392 26.1225C45.3511 25.7849 45.3943 25.4285 45.3664 25.074C45.3384 24.7195 45.2399 24.3742 45.0765 24.0584C44.9132 23.7425 44.6883 23.4626 44.4151 23.2349C44.142 23.0073 43.826 22.8366 43.4859 22.7328C43.1458 22.6291 42.7884 22.5944 42.4347 22.6309C42.081 22.6673 41.7381 22.7741 41.4263 22.945C41.1145 23.1159 40.84 23.3475 40.619 23.626L29.1523 37.3834L23.219 31.4473C22.7161 30.9616 22.0424 30.6928 21.3433 30.6989C20.6441 30.705 19.9752 30.9854 19.4808 31.4798C18.9864 31.9743 18.7059 32.6431 18.6999 33.3423C18.6938 34.0415 18.9626 34.7151 19.4483 35.218L27.4483 43.218C27.7103 43.4799 28.024 43.6843 28.3694 43.8182C28.7148 43.9521 29.0843 44.0126 29.4544 43.9958C29.8244 43.9789 30.1869 43.8852 30.5188 43.7205C30.8506 43.5559 31.1445 43.3239 31.3817 43.0393L44.715 27.0394Z" fill="#4ACD9E"/>
</svg>
