<svg width="150" height="42" viewBox="0 0 150 42" fill="none" xmlns="http://www.w3.org/2000/svg">
<path d="M148.934 27.3397H148.079C147.767 27.3397 146.672 27.0025 145.772 26.3787C144.778 25.7084 144.022 24.7538 143.222 23.7439C143.008 23.4744 142.792 23.2018 142.585 22.9512L138.914 27.7413C139.131 27.9774 139.341 28.2149 139.549 28.451C140.38 29.388 141.239 30.3572 142.44 31.1782C144.166 32.3406 146.283 33.0421 148.141 33.0537H148.995V28.1931L148.934 27.3397Z" fill="#3C2C8A"/>
<path d="M132.609 19.6543L136.327 14.8758C136.132 14.6628 135.941 14.4489 135.753 14.2361C134.922 13.2973 134.063 12.3264 132.86 11.5063C131.14 10.3471 129.027 9.64533 127.209 9.62869L126.346 9.62086V14.6059L126.369 15.4611H127.225C127.492 15.4611 128.233 15.7001 129.191 16.3632C130.552 17.2813 131.643 18.492 132.609 19.6543Z" fill="#3C2C8A"/>
<path d="M148.133 9.62898C146.299 9.64644 144.179 10.3483 142.46 11.5101C140.5 12.8493 139.108 14.5882 137.881 16.1224L137.408 16.7112C137.351 16.7811 137.091 17.1291 136.706 17.6429C136.248 18.2571 135.607 19.1139 134.929 20.0108C133.383 22.0609 132.296 23.4409 131.867 23.8976C131.573 24.2133 131.3 24.536 131.033 24.8502C130.506 25.4745 130.008 26.0632 129.437 26.4421C128.58 27.023 127.523 27.3398 127.201 27.3398H126.346V33.0635L127.209 33.0547C129.03 33.0378 131.142 32.3363 132.864 31.174C134.814 29.8405 136.195 28.1093 137.415 26.5829L137.906 25.97C137.958 25.9038 138.197 25.5838 138.552 25.1072C139.012 24.4902 139.673 23.6033 140.375 22.6735C142.375 20.0265 143.143 19.1 143.435 18.7893L143.438 18.7855C144.492 17.6537 145.419 16.819 146.201 16.3014C147.187 15.6363 147.864 15.4611 148.061 15.4597L148.996 15.4629V9.62115L148.133 9.62898Z" fill="#4FC3AC"/>
<path d="M15.5719 32.666V18.6663C15.5719 15.4757 13.9052 14.476 11.2862 14.476C8.95283 14.476 7.09554 15.8095 6.04796 17.1901V32.666H0V0.905087H6.04796V12.6667C7.52432 10.9048 10.3817 9.09542 14.1436 9.09542C19.1912 9.09542 21.6195 11.8569 21.6195 16.3332V32.666H15.5719Z" fill="#3C2C8A"/>
<path d="M24.8569 36.2377C25.3808 36.4759 26.1905 36.6187 26.762 36.6187C28.3334 36.6187 29.381 36.1897 29.9523 34.9524L30.8096 32.9996L21.4761 9.66745H27.9525L33.9527 25.6671L39.9528 9.66745H46.4768L35.6668 36.4286C33.9527 40.7612 30.9046 41.9043 26.9521 41.999C26.2383 41.999 24.7141 41.8562 23.9522 41.6662L24.8569 36.2377Z" fill="#3C2C8A"/>
<path d="M62.1434 25.2376V17.0949C61.1427 15.5714 58.9528 14.4761 56.9049 14.4761C53.4761 14.4761 51.095 17.1902 51.095 21.1907C51.095 25.142 53.4761 27.8564 56.9049 27.8564C58.9528 27.8564 61.1427 26.7611 62.1434 25.2376ZM62.1434 32.6661V29.7136C60.3336 31.9995 57.8096 33.2373 55.0475 33.2373C49.238 33.2373 44.8571 28.8567 44.8571 21.1907C44.8571 13.6667 49.1905 9.09547 55.0475 9.09547C57.7621 9.09547 60.3336 10.2858 62.1434 12.6189V0.905136H68.2388V32.6661H62.1434Z" fill="#3C2C8A"/>
<path d="M70.4287 32.666V9.66697H76.4766V12.8098C78.0959 10.762 80.953 9.09543 83.8095 9.09543V15.0001C83.3819 14.9045 82.8096 14.8569 82.1432 14.8569C80.1434 14.8569 77.4765 16.0001 76.4766 17.476V32.666H70.4287Z" fill="#3C2C8A"/>
<path d="M101.763 21.1427C101.763 17.5714 99.6191 14.4761 95.8568 14.4761C92.0952 14.4761 89.9999 17.5714 89.9999 21.1427C89.9999 24.7611 92.0952 27.8564 95.8568 27.8564C99.6191 27.8564 101.763 24.7611 101.763 21.1427ZM83.714 21.1427C83.714 14.6189 88.2859 9.09547 95.8568 9.09547C103.476 9.09547 108.048 14.6189 108.048 21.1427C108.048 27.7136 103.476 33.2373 95.8568 33.2373C88.2859 33.2373 83.714 27.7136 83.714 21.1427Z" fill="#3C2C8A"/>
<path d="M109.667 32.666V0.905087H115.714V32.666H109.667Z" fill="#3C2C8A"/>
<path d="M117.761 3.57197C117.761 1.57172 119.427 0.000434875 121.381 0.000434875C123.381 0.000434875 125 1.57172 125 3.57197C125 5.57168 123.381 7.19043 121.381 7.19043C119.427 7.19043 117.761 5.57168 117.761 3.57197Z" fill="#FBC10D"/>
<path d="M118.381 32.666V9.66697H124.428V32.666H118.381Z" fill="#3C2C8A"/>
</svg>
