<svg width="74" height="22" viewBox="0 0 74 22" fill="none" xmlns="http://www.w3.org/2000/svg">
<path d="M73.7568 14.74H73.3333C73.1785 14.74 72.6364 14.5733 72.1907 14.2644C71.6985 13.9318 71.3242 13.4592 70.9277 12.9592C70.822 12.8258 70.7148 12.6905 70.6124 12.5667L68.7939 14.9392C68.9015 15.0559 69.0057 15.1738 69.1092 15.2903C69.5205 15.7547 69.9458 16.2348 70.5404 16.6413C71.3948 17.217 72.4431 17.5644 73.364 17.5703H73.7871V15.1627L73.7568 14.74Z" fill="white"/>
<path d="M65.6722 10.9336L67.5133 8.56696C67.4172 8.46146 67.3226 8.35551 67.2291 8.25012C66.8178 7.78517 66.3921 7.30432 65.7968 6.89813C64.9442 6.3239 63.8977 5.97646 62.9975 5.96807L62.5703 5.96434V8.43345L62.5818 8.85697H63.0053C63.1376 8.85697 63.5049 8.97519 63.979 9.3036C64.653 9.75846 65.194 10.3581 65.6722 10.9336Z" fill="white"/>
<path d="M73.3601 5.96799C72.4518 5.97664 71.4015 6.32441 70.5497 6.89963C69.5797 7.56291 68.8909 8.42412 68.283 9.18397L68.0483 9.47572C68.0203 9.51023 67.8913 9.6827 67.7006 9.9372C67.4741 10.2414 67.157 10.6657 66.8207 11.1099C66.0551 12.1253 65.5163 12.8088 65.3045 13.0348C65.1582 13.1912 65.0229 13.3508 64.8918 13.5069C64.6305 13.8158 64.384 14.1077 64.1009 14.2955C63.6767 14.5825 63.1531 14.7396 62.9934 14.7396H62.5703V17.5742L62.9975 17.5702C63.8988 17.5617 64.945 17.2139 65.7986 16.6387C66.7638 15.9783 67.4478 15.121 68.0517 14.3644L68.2948 14.0615C68.3211 14.0285 68.4393 13.87 68.6152 13.6343C68.8429 13.3283 69.1703 12.8893 69.5176 12.4288C70.508 11.1177 70.8882 10.6587 71.0335 10.5048L71.035 10.5029C71.5564 9.94241 72.0157 9.52897 72.403 9.27262C72.8908 8.94336 73.2259 8.85645 73.3239 8.85585L73.7873 8.85733V5.96396L73.3601 5.96799Z" fill="white"/>
<path d="M7.71152 17.377V10.4431C7.71152 8.86313 6.88627 8.36787 5.58927 8.36787C4.43346 8.36787 3.51364 9.02828 2.99499 9.71222V17.377H0V1.64675H2.99499V7.47174C3.72598 6.5993 5.1412 5.70302 7.00419 5.70302C9.50378 5.70302 10.7066 7.07072 10.7066 9.28754V17.377H7.71152Z" fill="white"/>
<path d="M12.31 19.1465C12.5696 19.2647 12.9704 19.3349 13.2534 19.3349C14.0316 19.3349 14.5504 19.1228 14.8334 18.5097L15.2581 17.543L10.6357 5.98703H13.8429L16.8145 13.9111L19.786 5.98703H23.0167L17.6634 19.2406C16.8145 21.3869 15.3052 21.9527 13.3478 22C12.9938 22 12.2393 21.9294 11.862 21.8352L12.31 19.1465Z" fill="white"/>
<path d="M30.7757 13.6983V9.66546C30.2803 8.91093 29.1956 8.36845 28.1816 8.36845C26.4834 8.36845 25.3042 9.7128 25.3042 11.6937C25.3042 13.651 26.4834 14.9955 28.1816 14.9955C29.1956 14.9955 30.2803 14.453 30.7757 13.6983ZM30.7757 17.3775V15.9153C29.8793 17.0474 28.6296 17.6602 27.2616 17.6602C24.3845 17.6602 22.2148 15.491 22.2148 11.6937C22.2148 7.96773 24.3609 5.7036 27.2616 5.7036C28.606 5.7036 29.8793 6.29313 30.7757 7.44864V1.64733H33.7942V17.3775H30.7757Z" fill="white"/>
<path d="M34.8779 17.377V5.98609H37.8732V7.54262C38.6747 6.52853 40.09 5.70302 41.505 5.70302V8.62755C41.2925 8.58006 41.0095 8.55638 40.6795 8.55638C39.6891 8.55638 38.368 9.12269 37.8732 9.85382V17.377H34.8779Z" fill="white"/>
<path d="M50.395 11.6703C50.395 9.90145 49.3337 8.36845 47.4709 8.36845C45.6077 8.36845 44.57 9.90145 44.57 11.6703C44.57 13.4626 45.6077 14.9955 47.4709 14.9955C49.3337 14.9955 50.395 13.4626 50.395 11.6703ZM41.457 11.6703C41.457 8.43919 43.7212 5.7036 47.4709 5.7036C51.2442 5.7036 53.508 8.43919 53.508 11.6703C53.508 14.9249 51.2442 17.6602 47.4709 17.6602C43.7212 17.6602 41.457 14.9249 41.457 11.6703Z" fill="white"/>
<path d="M54.3105 17.377V1.64675H57.3053V17.377H54.3105Z" fill="white"/>
<path d="M58.3193 2.96765C58.3193 1.977 59.1445 1.19879 60.1112 1.19879C61.102 1.19879 61.9039 1.977 61.9039 2.96765C61.9039 3.9579 61.102 4.75977 60.1112 4.75977C59.1445 4.75977 58.3193 3.9579 58.3193 2.96765Z" fill="white"/>
<path d="M58.625 17.377V5.98609H61.6201V17.377H58.625Z" fill="white"/>
</svg>
