<svg width="18" height="18" viewBox="0 0 18 18" fill="none" xmlns="http://www.w3.org/2000/svg">
<path d="M14.9373 2.72478L13.7034 4.01385C13.4679 3.35632 12.8896 2.85563 12.1671 2.79189C11.1709 2.69738 10.2964 3.46369 10.2064 4.50781L10.2064 4.50798L9.98677 7.16046L9.98229 7.21458H10.0366H12.4639V8.95021H9.87848H9.83246L9.82865 8.99607L9.44212 13.6494L9.44211 13.6494C9.40331 14.1233 9.27528 14.5844 9.06546 15.0062C8.85564 15.4281 8.5682 15.8023 8.21973 16.1075C7.87128 16.4127 7.46866 16.6429 7.03506 16.7849C6.60146 16.927 6.14533 16.9781 5.69284 16.9354L5.69255 16.9354C5.15578 16.8878 4.63686 16.7102 4.17694 16.4166C3.7275 16.1296 3.34643 15.7395 3.06261 15.2758L4.29656 13.9866C4.53214 14.6441 5.11042 15.1448 5.83292 15.2085C6.82906 15.303 7.70356 14.5367 7.79359 13.4926L7.7936 13.4925L8.17135 9.0044L8.17591 8.95021H8.12152H5.53609V7.21458H8.27086H8.31683L8.32069 7.16878L8.55788 4.35109L8.55788 4.35102C8.72268 2.3574 10.4043 0.88429 12.3071 1.06502L12.3075 1.06505C13.4276 1.16332 14.3713 1.80899 14.9373 2.72478Z" fill="#9598A4" stroke="white" stroke-width="0.1"/>
</svg>
