<svg width="18" height="18" viewBox="0 0 18 18" fill="none" xmlns="http://www.w3.org/2000/svg">
<path d="M2.8125 10.125V11.25H5.95463L1.6875 15.5171L2.48287 16.3125L6.75 12.0454V15.1875H7.875V10.125H2.8125Z" fill="#9598A4"/>
<path d="M15.1875 1.6875H2.8125C2.51413 1.6875 2.22798 1.80603 2.017 2.017C1.80603 2.22798 1.6875 2.51413 1.6875 2.8125V8.4375H2.8125V6.1875H8.4375V8.4375H9.5625V6.1875H15.1875V10.125H9.5625V11.25H15.1875V15.1875H9.5625V16.3125H15.1875C15.4859 16.3125 15.772 16.194 15.983 15.983C16.194 15.772 16.3125 15.4859 16.3125 15.1875V2.8125C16.3125 2.51413 16.194 2.22798 15.983 2.017C15.772 1.80603 15.4859 1.6875 15.1875 1.6875ZM15.1875 5.0625H2.8125V2.8125H15.1875V5.0625Z" fill="#9598A4"/>
</svg>
