<svg width="18" height="18" viewBox="0 0 18 18" fill="none" xmlns="http://www.w3.org/2000/svg">
<path d="M16.5536 6.23636H16.6536V6.13636V3.43182V3.33182H16.5536H12.2946H12.1946V3.43182V6.13636V6.23636H12.2946H16.5536ZM16.5536 10.6909H16.6536V10.5909V7.40909V7.30909H16.5536H12.2946H12.1946V7.40909V10.5909V10.6909H12.2946H16.5536ZM6.99107 7.30909H6.89107V7.40909V10.5909V10.6909H6.99107H11.0089H11.1089V10.5909V7.40909V7.30909H11.0089H6.99107ZM11.0089 6.23636H11.1089V6.13636V3.43182V3.33182H11.0089H6.99107H6.89107V3.43182V6.13636V6.23636H6.99107H11.0089ZM1.44643 7.30909H1.34643V7.40909V10.5909V10.6909H1.44643H5.70536H5.80536V10.5909V7.40909V7.30909H5.70536H1.44643ZM1.44643 3.33182H1.34643V3.43182V6.13636V6.23636H1.44643H5.70536H5.80536V6.13636V3.43182V3.33182H5.70536H1.44643ZM1.44643 11.7636H1.34643V11.8636V14.5682V14.6682H1.44643H5.70536H5.80536V14.5682V11.8636V11.7636H5.70536H1.44643ZM6.99107 11.7636H6.89107V11.8636V14.5682V14.6682H6.99107H11.0089H11.1089V14.5682V11.8636V11.7636H11.0089H6.99107ZM16.5536 14.6682H16.6536V14.5682V11.8636V11.7636H16.5536H12.2946H12.1946V11.8636V14.5682V14.6682H12.2946H16.5536ZM0.642857 2.1H17.3571C17.6585 2.1 17.9 2.34056 17.9 2.63636V15.3636C17.9 15.6594 17.6585 15.9 17.3571 15.9H0.642857C0.341546 15.9 0.1 15.6594 0.1 15.3636V2.63636C0.1 2.34056 0.341546 2.1 0.642857 2.1Z" fill="#9598A4" stroke="white" stroke-width="0.2"/>
</svg>
