<svg width="18" height="18" viewBox="0 0 18 18" fill="none" xmlns="http://www.w3.org/2000/svg">
<path d="M2.25 11.25V12.375H4.82963L1.125 16.0796L1.92037 16.875L5.625 13.1704V15.75H6.75V11.25H2.25ZM11.25 12.375H13.5V13.5H11.25V12.375ZM9 10.125H11.25V11.25H9V10.125ZM11.25 7.875H13.5V9H11.25V7.875ZM4.5 7.875H6.75V9H4.5V7.875Z" fill="#9598A4"/>
<path d="M15.1875 1.6875H2.8125C2.51427 1.68795 2.22838 1.80662 2.0175 2.0175C1.80662 2.22838 1.68795 2.51427 1.6875 2.8125V9H2.8125V6.1875H15.1875V15.1875H9V16.3125H15.1875C15.4857 16.3121 15.7716 16.1934 15.9825 15.9825C16.1934 15.7716 16.3121 15.4857 16.3125 15.1875V2.8125C16.3121 2.51427 16.1934 2.22838 15.9825 2.0175C15.7716 1.80662 15.4857 1.68795 15.1875 1.6875ZM15.1875 5.0625H2.8125V2.8125H15.1875V5.0625Z" fill="#9598A4"/>
</svg>
