<svg width="14" height="14" viewBox="0 0 14 14" fill="none" xmlns="http://www.w3.org/2000/svg">
<path d="M2.33366 12.25H11.6046C12.248 12.25 12.7712 11.7267 12.7712 11.0833V2.91667C12.7712 2.27325 12.248 1.75 11.6046 1.75H2.33366C1.69024 1.75 1.16699 2.27325 1.16699 2.91667V11.0833C1.16699 11.7267 1.69024 12.25 2.33366 12.25ZM2.33366 11.0833V8.16667H4.66699V11.0833H2.33366ZM8.16699 4.08333V7H5.83366V4.08333H8.16699ZM4.66699 4.08333V7H2.33366V4.08333H4.66699ZM5.83366 11.0833V8.16667H8.16699V11.0833H5.83366ZM9.33366 11.0833V8.16667H11.6052V11.0833H9.33366ZM11.6046 7H9.33366V4.08333H11.6046V7Z" fill="#BCBEC9"/>
</svg>
